<svg>
    <symbol xmlns="http://www.w3.org/2000/svg" fill="currentColor" viewBox="-4 -3 24 24" id="play">
        <path d="M13.82 9.523a.976.976 0 0 0-.324-1.363L3.574 2.128a1.031 1.031 0 0 0-.535-.149c-.56 0-1.013.443-1.013.99V15.03c0 .185.053.366.153.523.296.464.92.606 1.395.317l9.922-6.031c.131-.08.243-.189.325-.317zm.746 1.997-9.921 6.031c-1.425.867-3.3.44-4.186-.951A2.918 2.918 0 0 1 0 15.03V2.97C0 1.329 1.36 0 3.04 0c.567 0 1.123.155 1.605.448l9.921 6.032c1.425.866 1.862 2.696.975 4.088-.246.386-.58.712-.975.952z"/>
    </symbol>
    <symbol xmlns="http://www.w3.org/2000/svg" fill="currentColor" viewBox="-2 -2 24 24" id="color-switch">
        <path d="M10 18c.112 0 .112-5.333 0-16a8 8 0 1 0 0 16zm0 2C4.477 20 0 15.523 0 10S4.477 0 10 0s10 4.477 10 10-4.477 10-10 10z"/>
    </symbol>
    <symbol xmlns="http://www.w3.org/2000/svg" fill="currentColor" viewBox="-8 -5 24 24" id="chevron-left">
        <path d="m2.757 7 4.95 4.95a1 1 0 1 1-1.414 1.414L.636 7.707a1 1 0 0 1 0-1.414L6.293.636A1 1 0 0 1 7.707 2.05L2.757 7z"/>
    </symbol>
    <symbol xmlns="http://www.w3.org/2000/svg" fill="currentColor" viewBox="-2 -1.5 24 24" id="help">
        <path d="M10 20.393c-5.523 0-10-4.477-10-10 0-5.522 4.477-10 10-10s10 4.478 10 10c0 5.523-4.477 10-10 10zm1.276-8.218.394-.308a3.5 3.5 0 1 0-4.31-5.516l-.394.308a1 1 0 1 0 1.231 1.576l.394-.308a1.5 1.5 0 0 1 1.847 2.364l-.394.308a1 1 0 1 0 1.232 1.576zM10 15.393a1 1 0 1 0 0-2 1 1 0 0 0 0 2z"/>
    </symbol>
    <symbol xmlns="http://www.w3.org/2000/svg" fill="currentColor" viewBox="-1 -2 24 24" id="restart">
        <path d="m19.347 7.24.847-1.266a.984.984 0 0 1 1.375-.259c.456.31.58.93.277 1.383L19.65 10.38a.984.984 0 0 1-1.375.259L14.97 8.393a1.002 1.002 0 0 1-.277-1.382.984.984 0 0 1 1.375-.26l1.344.915C16.428 4.386 13.42 2 9.863 2c-4.357 0-7.89 3.582-7.89 8s3.533 8 7.89 8c.545 0 .987.448.987 1s-.442 1-.987 1C4.416 20 0 15.523 0 10S4.416 0 9.863 0c4.504 0 8.302 3.06 9.484 7.24z"/>
    </symbol>
    <symbol xmlns="http://www.w3.org/2000/svg" width="24" height="24" fill="currentColor" viewBox="-6 -6 24 24" id="close">
        <path d="m7.314 5.9 3.535-3.536A1 1 0 1 0 9.435.95L5.899 4.485 2.364.95A1 1 0 1 0 .95 2.364l3.535 3.535L.95 9.435a1 1 0 1 0 1.414 1.414l3.535-3.535 3.536 3.535a1 1 0 1 0 1.414-1.414L7.314 5.899z"/>
    </symbol>
</svg>